<svg width="1094" height="912" viewBox="0 0 1094 912" fill="none" xmlns="http://www.w3.org/2000/svg">
<path d="M267.6 6.26663C266.266 9.46663 216 144.4 155.866 306.267L46.6663 600.667H25.0663H3.33301V615.333V630H75.9997H148.666V615.333V600.667L117.6 600.4L86.533 600L117.733 512.267L149.066 424.667H231.466C276.933 424.667 314 424.933 314 425.2C314 425.467 327.2 464.667 343.333 512.533C359.466 560.267 372.666 599.6 372.666 600C372.666 600.4 359.466 600.667 343.333 600.667H314V615.333V630H462.666H611.333V615.333V600.667H590.266H569.2L459.2 300.933L349.2 1.3333L309.6 0.933301L269.866 0.666634L267.6 6.26663ZM268.666 290.8C287.066 345.733 302 391.467 302 392.267C302 393.6 287.333 394 232 394C187.333 394 162 393.467 162 392.667C162 391.6 177.066 349.2 232.933 193.6C233.733 191.6 234.533 190.133 234.933 190.4C235.2 190.8 250.4 235.867 268.666 290.8Z" fill="#10008E"/>
<path d="M500.667 306.667V320.667H521.067H541.333L603.867 490.267C638.267 583.6 666.8 660.4 667.2 661.067C667.733 661.6 708.4 661.867 757.6 661.733L846.933 661.333L789.867 491.333C758.533 397.867 732.8 321.2 732.667 320.933C732.667 320.8 745.867 320.667 762 320.667H791.333V306.667V292.667H646H500.667V306.667Z" fill="#FF0202"/>
<path d="M944.667 306.667V320.667H976.8H1008.8L1007.87 323.6C1007.33 325.333 980.667 402 948.667 494L890.4 661.333L907.733 661.733C917.333 661.867 925.467 661.6 926 661.067C926.533 660.533 953.467 583.6 986 490.267L1045.07 320.667H1066.27H1087.47L1087.07 306.933L1086.67 293.333L1015.73 292.933L944.667 292.667V306.667Z" fill="#FF0202"/>
<path d="M1040.67 667.333C1040.67 668 1043.07 668.667 1046 668.667H1051.33V731.333V794H1046.67C1044.13 794 1042 794.533 1042 795.333C1042 796.133 1051.6 796.667 1068 796.667C1083.33 796.667 1094 796.133 1094 795.467C1094 794.667 1091.73 794 1089.07 793.733L1084 793.333L1083.6 729.6L1083.33 666H1062C1048.67 666 1040.67 666.533 1040.67 667.333Z" fill="#10008E"/>
<path d="M705.333 669.867C697.866 673.2 694 682.533 696.666 690.667C698.933 697.6 703.6 700.667 712.266 700.667C724.8 700.667 730.133 696.133 730.4 685.2C730.4 678.533 728.533 674 724.4 671.467C720.933 669.333 708.8 668.267 705.333 669.867Z" fill="#10008E"/>
<path d="M0.666504 676C0.666504 677.333 2.13317 678 5.33317 678H9.99984V736V794H5.33317C2.79984 794 0.666504 794.533 0.666504 795.333C0.666504 796.133 10.3998 796.667 27.3332 796.667C44.2665 796.667 53.9998 796.133 53.9998 795.333C53.9998 794.533 51.8665 794 49.3332 794H44.6665V736V678H49.3332C52.5332 678 53.9998 677.333 53.9998 676C53.9998 674.267 50.1332 674 27.3332 674C4.53317 674 0.666504 674.267 0.666504 676Z" fill="#10008E"/>
<path d="M191.333 687.2L177.333 690.8L176.933 702.4L176.533 714H172C169.466 714 167.333 714.533 167.333 715.333C167.333 716 169.333 716.667 171.866 716.667H176.4L176.933 749.6C177.333 781.2 177.466 782.933 180.4 787.467C184.533 794.267 191.2 797.067 203.733 797.733C221.333 798.667 229.2 793.867 233.466 779.6C234.666 775.733 234.933 773.067 234.133 772.267C233.333 771.467 232.533 772.4 231.866 774.8C230.4 780.933 226.266 788.4 223.466 790C219.2 792.267 214.266 791.6 212.133 788.4C210.266 785.867 210 780 210 751.067V716.667H220.533C226.4 716.667 231.6 716 232 715.333C232.533 714.533 228.666 714 221.466 714H210V698.667C210 680.8 211.866 681.867 191.333 687.2Z" fill="#10008E"/>
<path d="M641.067 687.067L627.467 690.533L627.067 701.867L626.667 713.333L621.6 713.733C615.467 714.267 616.4 716.667 622.667 716.667H627.2L627.6 750.533C628 782.667 628.133 784.667 630.8 788.267C636.267 795.467 641.333 797.333 656 797.333C671.2 797.333 674.4 796 679.867 787.6C683.333 782.267 685.867 772.667 683.733 772.667C682.933 772.667 681.733 775.2 680.8 778.267C677.6 788.667 668.933 794.133 662.533 789.467C660.133 787.733 660 785.333 659.6 752.133L659.2 716.667H670.533C677.333 716.667 682 716.133 682 715.333C682 714.533 677.333 714 670.667 714H659.333V698.667C659.333 680.8 661.2 682 641.067 687.067Z" fill="#10008E"/>
<path d="M119.733 712.533C113.467 714.133 109.333 717.2 105.867 722.933L102.667 728L102.267 720.933L101.867 714H81.1998C68.3998 714 60.6665 714.533 60.6665 715.333C60.6665 716 62.7998 716.667 65.3332 716.667H69.9998V755.333V794H65.3332C62.7998 794 60.6665 794.533 60.6665 795.333C60.6665 796.133 69.7332 796.667 85.3332 796.667C99.7332 796.667 110 796.133 110 795.467C110 794.8 108.4 794 106.4 793.733L102.667 793.333V765.333C102.667 735.467 103.467 730.4 109.333 724.133C113.733 719.333 120.267 719.333 122 724.133C122.8 726 123.333 742.4 123.333 760.8V794H120C118.133 794 116.667 794.533 116.667 795.333C116.667 796.133 125.733 796.667 141.333 796.667C155.867 796.667 166 796.133 166 795.467C166 794.667 163.733 794 161.067 793.733L156 793.333L155.333 760.667C154.667 727.2 154.267 725.2 148.8 718.8C147.6 717.467 145.067 715.6 143.067 714.533C138.533 712.133 125.467 711.067 119.733 712.533Z" fill="#10008E"/>
<path d="M271.467 712.667C258.133 715.467 246.533 724.133 241.467 735.2C239.333 740.133 238.667 744 238.667 754.667C238.667 766.267 239.2 768.933 242.133 775.333C246.267 784.267 252.533 790.8 260.533 794.4C265.6 796.667 269.333 797.2 282.667 797.2C300 797.333 305.6 795.6 312.133 788.4C315.2 785.067 320.667 775.067 320.667 772.667C320.667 769.6 318.267 771.6 316 776.533C313.2 782.667 306.8 789.333 301.6 791.2C296 793.333 286.267 792.933 281.867 790.4C275.467 786.533 271.333 773.867 271.333 757.6V751.333H296H320.667V744.933C320.667 731.333 313.867 720.133 302.4 715.067C296 712.267 279.733 710.933 271.467 712.667ZM288.267 720.667C289.2 723.2 289.867 730.533 289.867 736.933L290 748.667H281.333C274.4 748.667 272.4 748.133 271.733 746.533C271.333 745.333 271.467 738.933 272.267 732.4C273.867 718.667 276.133 714.933 282.533 715.6C285.867 715.867 286.933 716.933 288.267 720.667Z" fill="#10008E"/>
<path d="M385.333 713.067C379.2 715.467 376 718.133 372.8 723.333L370 728V720.933V714H348.666C335.333 714 327.333 714.533 327.333 715.333C327.333 716 329.466 716.667 332 716.667H336.666V755.333V794H332C329.466 794 327.333 794.533 327.333 795.333C327.333 796.133 337.333 796.667 354.666 796.667C372 796.667 382 796.133 382 795.333C382 794.533 379.2 794 375.866 794H369.866L370.266 763.6C370.666 734.133 370.8 733.2 374 727.6C378.666 719.333 386.4 715.6 390 720C392.4 722.8 390.4 727.333 386.666 727.333C381.733 727.333 380.4 733.733 384 740.667C388.4 749.2 403.466 748.933 408.8 740.133C413.733 732 410.933 718 403.466 714.133C399.2 711.733 389.733 711.2 385.333 713.067Z" fill="#10008E"/>
<path d="M472.267 713.2C466.267 715.467 462.533 718.533 459.2 724L456.667 728V720.933V714H435.333C422 714 414 714.533 414 715.333C414 716 416.4 716.667 419.333 716.667H424.667L424.4 754.933L424 793.333L419.067 793.733C416.267 794 414 794.667 414 795.467C414 796.133 424.4 796.667 439.333 796.667C455.333 796.667 464.667 796.133 464.667 795.333C464.667 794.533 462.933 794 460.667 794H456.667V766.133C456.667 744.533 457.067 737.067 458.667 732.533C462.267 722.4 468.667 717.867 473.867 721.6C476.533 723.467 476.667 724.667 476.667 758.8V794H473.333C471.467 794 470 794.533 470 795.333C470 796.133 479.067 796.667 494.667 796.667C510.267 796.667 519.333 796.133 519.333 795.333C519.333 794.533 517.333 794 514.8 794H510.267L509.733 761.6C509.333 730.533 509.2 729.2 506.133 723.867C504.4 720.667 500.8 717.067 497.733 715.333C491.067 711.6 479.2 710.667 472.267 713.2Z" fill="#10008E"/>
<path d="M553.333 712.133C544.933 713.467 536.933 716.933 533.333 720.667C530.4 723.733 529.466 726.267 528.933 731.867C528.4 738.667 528.666 739.467 532.4 743.333C535.866 746.667 537.466 747.333 543.2 747.333C548.666 747.333 550.666 746.667 554 743.6C557.733 740.133 558.666 737.333 558.266 729.6C558 726.933 557.333 726 555.2 726C552.933 726 552.533 725.333 552.933 721.067C553.2 716.933 554 715.867 557.066 714.8C559.6 713.867 561.6 713.867 563.066 714.8C567.466 717.6 568.666 722.4 568.666 738.8V754.933L557.066 755.733C535.6 757.333 526.933 761.6 524.666 772.133C522.266 782.533 526 791.2 534.666 795.333C539.733 797.733 542.533 798.133 550.666 797.733C559.466 797.333 561.066 796.8 564.666 793.333C566.8 791.2 568.666 788.533 568.666 787.467C568.666 786.133 570 787.067 572.266 789.867C576.933 795.733 582.666 798 592.933 798C607.733 798 613.866 792.533 616 777.6C616.933 770.133 614.666 768.933 613.466 776.267C611.866 785.2 610 788.667 606.533 788.667C602.4 788.667 602.133 787.6 601.6 757.333C600.933 724.133 598.933 719.067 584.666 714.133C579.6 712.4 559.733 711.2 553.333 712.133ZM568.666 771.2C568.666 783.2 568.4 784.933 565.6 788.133C561.733 792.667 558.666 791.733 557.466 786C555.333 775.2 557.6 763.333 562.4 760C568 756 568.666 757.067 568.666 771.2Z" fill="#10008E"/>
<path d="M778 712.667C765.333 714.8 753.733 722.667 748.667 732.8C742.667 744.533 742.667 766.267 748.667 778C752.133 784.933 758.8 791.2 766 794.533C771.067 796.8 774.667 797.333 788 797.333C802.8 797.333 804.533 797.067 811.6 793.6C826.4 786.4 832 775.2 831.867 753.333C831.867 738.533 829.2 730.133 822.267 722.933C813.467 713.6 796.133 709.6 778 712.667ZM794.533 717.333C797.867 720.8 798.667 728.133 798.533 757.333C798.533 787.333 797.733 791.6 792.133 794.133C786.533 796.667 782.533 794.667 780 788.267C778.133 783.333 777.867 777.867 778.267 752.533C778.667 726.533 778.933 722 781.067 718.933C782.8 716.133 784.533 715.333 788 715.333C790.4 715.333 793.333 716.267 794.533 717.333Z" fill="#10008E"/>
<path d="M896.666 712.8C891.333 714.4 886.8 718.267 883.2 724L880.666 728V720.933V714H859.333C846 714 838 714.533 838 715.333C838 716 840.133 716.667 842.666 716.667H847.333V755.333V794H842.666C840.133 794 838 794.533 838 795.333C838 796.133 847.066 796.667 862.666 796.667C878.266 796.667 887.333 796.133 887.333 795.333C887.333 794.533 885.866 794 884 794H880.666V764.933C880.666 739.733 881.066 735.333 883.2 730.667C887.466 721.467 893.733 717.733 898 722C900.533 724.533 900.666 726.533 900.666 759.333V794H897.333C895.466 794 894 794.533 894 795.333C894 796.133 903.066 796.667 918.666 796.667C934.266 796.667 943.333 796.133 943.333 795.333C943.333 794.533 941.333 794 938.8 794H934.266L933.733 762.267C933.333 741.467 932.533 729.333 931.466 726.667C929.466 721.733 925.066 716.933 920.4 714.533C915.6 712 902.533 711.067 896.666 712.8Z" fill="#10008E"/>
<path d="M972.667 713.067C959.2 716.267 953.733 720.667 952 730.267C950.8 736.533 954.133 744.267 958.667 746C966.667 749.067 977.6 746.4 980.667 740.8C982.267 737.733 982.4 730 980.933 727.867C980.4 727.067 978.933 726.133 977.733 725.6C974.667 724.533 974.667 719.067 977.733 716.267C981.467 712.8 986.933 713.467 989.467 717.467C991.2 720 991.867 724.933 992.4 738.133L993.067 755.333H986.533C976 755.467 962.267 757.867 956.8 760.667C950 764 946.8 770.8 947.6 779.6C948.8 791.733 955.333 796.933 970.8 797.733C981.733 798.4 987.2 796.267 990.8 790.133L993.2 786.133L995.467 789.867C998.933 795.467 1007.73 798.4 1019.2 797.733C1027.33 797.333 1029.07 796.667 1032.53 793.467C1037.73 788.533 1042 771.333 1038 771.333C1037.33 771.333 1036.67 773.2 1036.67 775.333C1036.67 781.733 1033.2 788.667 1030.13 788.667C1025.47 788.667 1024.67 784.533 1024.67 758.4C1024.53 725.867 1022.8 720.667 1010.4 715.067C1003.07 711.867 982.667 710.8 972.667 713.067ZM992.533 768.933C992.533 785.467 988.267 794.533 982.8 790.133C981.2 788.8 980.667 785.733 980.667 777.867C980.667 766.4 982.133 761.6 986.533 759.6C992.267 756.8 992.667 757.467 992.533 768.933Z" fill="#10008E"/>
<path d="M686 715.333C686 716 688.4 716.667 691.333 716.667H696.666V755.333V794H692C689.466 794 687.333 794.533 687.333 795.333C687.333 796.133 696.933 796.667 713.333 796.667C728.666 796.667 739.333 796.133 739.333 795.467C739.333 794.667 737.066 794 734.4 793.733L729.333 793.333L728.933 753.6L728.666 714H707.333C694 714 686 714.533 686 715.333Z" fill="#10008E"/>
<path d="M731.333 835.6C733.6 841.733 740.667 861.067 747.2 878.667L759.067 910.667L799.2 911.067C821.2 911.2 839.333 911.2 839.333 910.933C839.333 910.667 846 891.6 854 868.667C862.133 845.6 868.667 826.267 868.667 825.733C868.667 825.067 836.933 824.667 798 824.667H727.333L731.333 835.6Z" fill="#FF0202"/>
</svg>
